<svg width="26" height="25" viewBox="0 0 26 25" fill="none" xmlns="http://www.w3.org/2000/svg">
<path fill-rule="evenodd" clip-rule="evenodd" d="M9.75008 22.6667C9.70406 22.6667 9.66675 22.7041 9.66675 22.7501C9.66675 22.7961 9.70406 22.8334 9.75008 22.8334C9.7961 22.8334 9.83341 22.7961 9.83341 22.7501C9.83341 22.7041 9.7961 22.6667 9.75008 22.6667ZM7.66675 22.7501C7.66675 21.5995 8.59949 20.6667 9.75008 20.6667C10.9007 20.6667 11.8334 21.5995 11.8334 22.7501C11.8334 23.9007 10.9007 24.8334 9.75008 24.8334C8.59949 24.8334 7.66675 23.9007 7.66675 22.7501Z" fill="#564A4A"/>
<path fill-rule="evenodd" clip-rule="evenodd" d="M21.6666 22.6667C21.6206 22.6667 21.5833 22.7041 21.5833 22.7501C21.5833 22.7961 21.6206 22.8334 21.6666 22.8334C21.7126 22.8334 21.7499 22.7961 21.7499 22.7501C21.7499 22.7041 21.7126 22.6667 21.6666 22.6667ZM19.5833 22.7501C19.5833 21.5995 20.516 20.6667 21.6666 20.6667C22.8172 20.6667 23.7499 21.5995 23.7499 22.7501C23.7499 23.9007 22.8172 24.8334 21.6666 24.8334C20.516 24.8334 19.5833 23.9007 19.5833 22.7501Z" fill="#564A4A"/>
<path fill-rule="evenodd" clip-rule="evenodd" d="M0.083252 1.08325C0.083252 0.530967 0.530967 0.083252 1.08325 0.083252H5.41658C5.89321 0.083252 6.3036 0.419637 6.39714 0.886995L7.32041 5.49992H24.9166C25.2146 5.49992 25.4971 5.63285 25.6871 5.86247C25.8771 6.0921 25.9547 6.3945 25.8989 6.68725L24.1641 15.7839C24.0193 16.5129 23.6227 17.1677 23.0438 17.6337C22.4676 18.0976 21.7473 18.345 21.0079 18.3333H10.4953C9.75589 18.345 9.03557 18.0976 8.45936 17.6337C7.88056 17.1678 7.48404 16.5131 7.33917 15.7844C7.33914 15.7842 7.3392 15.7845 7.33917 15.7844L5.52904 6.74048C5.52201 6.71198 5.51619 6.68301 5.51166 6.65361L4.5969 2.08325H1.08325C0.530967 2.08325 0.083252 1.63554 0.083252 1.08325ZM7.72071 7.49992L9.30076 15.3943C9.3541 15.6628 9.5002 15.9041 9.71349 16.0758C9.92678 16.2475 10.1937 16.3387 10.4674 16.3334L10.4866 16.3333H21.0166L21.0357 16.3334C21.3095 16.3387 21.5764 16.2475 21.7897 16.0758C22.0021 15.9047 22.1479 15.6647 22.2018 15.3974C22.202 15.3963 22.2022 15.3953 22.2024 15.3943L23.7079 7.49992H7.72071Z" fill="#564A4A"/>
</svg>
