<svg width="24" height="22" viewBox="0 0 24 22" fill="none" xmlns="http://www.w3.org/2000/svg">
<path d="M20.8401 3.61012C20.3294 3.09912 19.7229 2.69376 19.0555 2.4172C18.388 2.14064 17.6726 1.99829 16.9501 1.99829C16.2276 1.99829 15.5122 2.14064 14.8448 2.4172C14.1773 2.69376 13.5709 3.09912 13.0601 3.61012L12.0001 4.67012L10.9401 3.61012C9.90843 2.57842 8.50915 1.99883 7.05012 1.99883C5.59109 1.99883 4.19181 2.57842 3.16012 3.61012C2.12843 4.64181 1.54883 6.04108 1.54883 7.50012C1.54883 8.95915 2.12843 10.3584 3.16012 11.3901L4.22012 12.4501L12.0001 20.2301L19.7801 12.4501L20.8401 11.3901C21.3511 10.8794 21.7565 10.2729 22.033 9.60547C22.3096 8.93801 22.4519 8.2226 22.4519 7.50012C22.4519 6.77763 22.3096 6.06222 22.033 5.39476C21.7565 4.7273 21.3511 4.12087 20.8401 3.61012Z" fill="#839B64"/>
<path fill-rule="evenodd" clip-rule="evenodd" d="M14.462 1.49337C15.2508 1.16652 16.0963 0.998291 16.9501 0.998291C17.804 0.998291 18.6495 1.16652 19.4383 1.49337C20.2269 1.82015 20.9435 2.2991 21.5471 2.90284C22.1508 3.5064 22.6301 4.2233 22.9569 5.01197C23.2837 5.80078 23.4519 6.64627 23.4519 7.50012C23.4519 8.35397 23.2837 9.19945 22.9569 9.98826C22.6301 10.777 22.1511 11.4936 21.5472 12.0972C21.5472 12.0973 21.5473 12.0972 21.5472 12.0972L12.7072 20.9372C12.3167 21.3277 11.6835 21.3277 11.293 20.9372L2.45301 12.0972C1.23378 10.878 0.548828 9.22437 0.548828 7.50012C0.548828 5.77587 1.23378 4.12224 2.45301 2.90301C3.67224 1.68378 5.32587 0.998826 7.05012 0.998826C8.77437 0.998826 10.428 1.68378 11.6472 2.90301L12.0001 3.2559L12.3528 2.90318C12.3529 2.90312 12.3528 2.90323 12.3528 2.90318C12.9564 2.29935 13.6732 1.82018 14.462 1.49337ZM16.9501 2.99829C16.359 2.99829 15.7737 3.11476 15.2276 3.34104C14.6815 3.56731 14.1853 3.89897 13.7674 4.31706L12.7072 5.37722C12.3167 5.76775 11.6835 5.76775 11.293 5.37722L10.233 4.31722C9.38886 3.47307 8.24394 2.99883 7.05012 2.99883C5.8563 2.99883 4.71138 3.47307 3.86723 4.31722C3.02307 5.16138 2.54883 6.3063 2.54883 7.50012C2.54883 8.69393 3.02307 9.83885 3.86723 10.683L12.0001 18.8159L20.133 10.683C20.5511 10.2651 20.8829 9.76878 21.1092 9.22268C21.3355 8.67658 21.4519 8.09124 21.4519 7.50012C21.4519 6.90899 21.3355 6.32366 21.1092 5.77755C20.8829 5.23145 20.5513 4.73528 20.1332 4.31739C19.7153 3.8993 19.2188 3.56731 18.6727 3.34104C18.1266 3.11476 17.5412 2.99829 16.9501 2.99829Z" fill="#839B64"/>
</svg>
