<svg xmlns="http://www.w3.org/2000/svg" viewBox="0 0 75.11 75.06"><defs><style>.a{fill:#2196f2;}</style></defs><path class="a" d="M0,75.06V69Q0,38.62,0,8.24C0,1.91,1.9,0,8.24,0Q37.62,0,67,0c6.07,0,8,1.93,8.07,7.88q.06,21.72,0,43.46c0,6-2,7.9-8,7.92-14.66,0-29.31.13-44-.08a12.21,12.21,0,0,0-9.6,3.8C9.56,66.94,5.2,70.46,0,75.06ZM20.13,33.63c2-.57,3.73-1.74,3.5-4.31a3.6,3.6,0,0,0-3.94-3.54A3.66,3.66,0,0,0,15.9,30C16.05,32.21,17.61,33.37,20.13,33.63Zm17.53-7.94c-2.39.28-4,1.52-4,4a3.56,3.56,0,0,0,3.7,3.78,3.64,3.64,0,0,0,4-3.95C41.41,27.3,39.92,26.07,37.66,25.69Zm17.51,7.92c2.4-.26,4-1.5,4-4a3.56,3.56,0,0,0-3.67-3.81,3.65,3.65,0,0,0-4.06,3.92C51.43,32,53,33.17,55.17,33.61Z"/></svg>