<svg width="33" height="33" viewBox="0 0 33 33" fill="none" xmlns="http://www.w3.org/2000/svg">
<path d="M31.4892 18.703C31.0626 18.3763 30.4655 18.3497 30.0003 18.615C29.8617 18.6937 29.7244 18.7737 29.5818 18.847C26.4135 20.5108 22.8067 20.8094 19.4277 19.6856C15.8996 18.5124 13.0431 15.9513 11.3823 12.4757C9.87483 9.324 9.52963 5.71108 10.4107 2.30477C10.5466 1.78483 10.356 1.23557 9.9295 0.910236C9.50432 0.584959 8.92451 0.547588 8.45666 0.814246C0.7897 5.21508 -2.15466 15.066 1.75208 23.2411C3.73012 27.3767 7.14365 30.427 11.365 31.8309C12.9871 32.3695 14.6532 32.6375 16.3114 32.6375C18.8146 32.6375 21.3005 32.0282 23.597 30.8243C27.7224 28.6606 30.78 24.7463 31.9876 20.0855C32.1223 19.5669 31.9143 19.0283 31.4892 18.703Z" fill="#839B64"/>
</svg>
