<svg width="28" height="33" viewBox="0 0 28 33" fill="none" xmlns="http://www.w3.org/2000/svg">
<path d="M7.70325 10.2185C10.6598 10.2185 13.0646 8.01505 13.0646 5.30602C13.0646 2.59698 10.6598 0.393555 7.70325 0.393555C4.74705 0.393555 2.34229 2.59733 2.34229 5.30602C2.34229 8.0147 4.74743 10.2185 7.70325 10.2185ZM7.70325 1.42314C10.0399 1.42314 11.9409 3.16501 11.9409 5.30602C11.9409 7.44702 10.0399 9.18889 7.70325 9.18889C5.3666 9.18889 3.46595 7.44702 3.46595 5.30602C3.46595 3.16501 5.3666 1.42314 7.70325 1.42314Z" fill="#839B64"/>
<path d="M6.14894 12.6952C6.14894 11.3827 4.98365 10.3149 3.55115 10.3149C2.11866 10.3149 0.953369 11.3827 0.953369 12.6952C0.953369 14.0078 2.11866 15.0755 3.55115 15.0755C4.98365 15.0755 6.14894 14.0081 6.14894 12.6952ZM2.07665 12.6952C2.07665 11.9503 2.73783 11.3442 3.55115 11.3442C4.36448 11.3442 5.02566 11.9503 5.02566 12.6952C5.02566 13.4401 4.36448 14.0463 3.55115 14.0463C2.73783 14.0463 2.07665 13.4401 2.07665 12.6952Z" fill="#839B64"/>
<path d="M27.4865 20.5281C27.4922 20.4986 27.4963 20.4688 27.4963 20.4379L27.4888 15.2043C27.4888 15.144 27.4751 15.0868 27.4543 15.0327C27.4396 14.6315 27.3567 14.2177 27.1966 13.7975C26.5952 12.2179 25.0496 10.7933 22.9563 9.88891C17.696 7.61786 14.3617 9.47313 13.1714 10.3761C12.3823 10.975 11.6118 12.093 10.8662 13.1746C10.4476 13.7822 10.0517 14.3561 9.70734 14.7525C9.26264 15.2643 8.19424 15.6461 7.063 16.0501C5.11315 16.7468 2.90253 17.5368 2.16453 19.4683C1.96432 19.9926 1.90074 20.5277 1.95561 21.0625V25.66C1.95561 25.6798 1.95675 25.6992 1.9594 25.719L2.04001 26.3605C2.0438 26.3917 2.05061 26.4223 2.06083 26.4524C2.68378 28.3184 4.68397 29.7971 8.54469 31.2459C10.5911 32.0151 12.5076 32.3934 14.1834 32.3934C16.6143 32.3934 18.5381 31.5972 19.6106 30.043C20.0939 29.3421 20.5496 28.4225 20.9905 27.5333C21.5454 26.4139 22.1187 25.2564 22.7356 24.5455C22.9483 24.3003 23.488 24.085 24.0595 23.8571C25.3349 23.3481 27.0815 22.6507 27.4865 20.7132C27.4998 20.6498 27.4979 20.5877 27.4865 20.5281ZM3.22537 19.8085C3.79268 18.3243 5.66268 17.6557 7.47175 17.0097C8.74793 16.5536 9.95372 16.1226 10.5865 15.3937C10.9691 14.9533 11.3809 14.3565 11.8161 13.7243C12.4822 12.7582 13.2369 11.663 13.8886 11.1689C14.9131 10.391 17.8004 8.80072 22.4771 10.8204C24.2994 11.6075 25.6332 12.8164 26.1358 14.1366C26.4189 14.8804 26.4011 15.583 26.085 16.1694C25.3864 17.466 24.0039 18.0684 22.7837 18.5996C21.9094 18.9807 21.084 19.34 20.5818 19.9181C19.924 20.6768 19.3609 21.8136 18.8162 22.9129C18.4011 23.7507 18.0094 24.5424 17.5968 25.1395C16.2256 27.1259 12.6908 27.4144 8.592 25.874C5.33796 24.6523 3.30598 22.822 3.07928 21.0455V20.9869C3.07928 20.9595 3.07512 20.9331 3.07057 20.9071C3.04295 20.5354 3.08836 20.1674 3.22537 19.8085ZM23.611 22.9125C22.9075 23.1934 22.2429 23.4587 21.8561 23.9043C21.1533 24.7147 20.5504 25.9312 19.9675 27.1071C19.5228 28.0043 19.1031 28.8514 18.6611 29.4926C17.1824 31.6361 13.3792 31.9499 8.97085 30.2933C5.48329 28.9846 3.68444 27.7182 3.15043 26.1944L3.07928 25.6309V23.5277C4.1333 24.8059 5.87803 25.9673 8.16585 26.8263C10.0813 27.5462 11.8759 27.9002 13.4462 27.9002C15.7291 27.9002 17.5374 27.1515 18.5468 25.6895C19.0002 25.032 19.4271 24.171 19.8396 23.338C20.3558 22.2956 20.8895 21.2182 21.461 20.5589C21.8008 20.1674 22.5127 19.8577 23.2666 19.5293C24.2752 19.09 25.4719 18.5667 26.3689 17.6193L26.3727 20.4389C26.3727 20.4674 26.3772 20.4948 26.3818 20.5218C26.0877 21.9239 24.8285 22.4267 23.611 22.9125Z" fill="#839B64"/>
<path d="M5.47034 5.54349C5.47034 4.28433 6.58833 3.25995 7.96254 3.25995C8.27288 3.25995 8.52418 3.02934 8.52418 2.74533C8.52418 2.46132 8.27288 2.23071 7.96254 2.23071C5.96878 2.23071 4.34668 3.717 4.34668 5.54383C4.34668 5.82819 4.59798 6.05845 4.90832 6.05845C5.21866 6.05845 5.47034 5.82784 5.47034 5.54349Z" fill="#839B64"/>
</svg>
